Normalized EMG Linear Envelopes
nRows=43
nColumns=17

endheader
time	        VM	        VL	        RF	       GRA	        TA	   ADDLONG	   SEMIMEM	      BFLH	        GM	        GL	       TFL	   GLUTMAX	   GLUTMED	      PIRI	    OBTINT	        QF	
3.315	  0.083833	  0.111354	  0.270185	  0.183011	  0.205156	  0.000000	  0.103320	  0.032399	  0.000000	  0.040329	  0.000000	  0.117828	  0.620845	  0.291389	  0.057289	  0.077646	
3.3155	  0.085525	  0.113262	  0.267391	  0.182209	  0.202416	  0.000000	  0.103723	  0.032430	  0.000000	  0.040262	  0.000000	  0.118569	  0.625287	  0.291998	  0.058027	  0.078244	
3.316	  0.087233	  0.115181	  0.264594	  0.181441	  0.199712	  0.000000	  0.104156	  0.032476	  0.000000	  0.040190	  0.000000	  0.119320	  0.629654	  0.292567	  0.058771	  0.078844	
3.3165	  0.088957	  0.117109	  0.261796	  0.180708	  0.197045	  0.000000	  0.104620	  0.032539	  0.000000	  0.040113	  0.000000	  0.120080	  0.633942	  0.293096	  0.059521	  0.079447	
3.317	  0.090696	  0.119046	  0.258996	  0.180009	  0.194418	  0.000000	  0.105115	  0.032617	  0.000000	  0.040031	  0.000000	  0.120850	  0.638150	  0.293584	  0.060277	  0.080054	
3.3175	  0.092450	  0.120991	  0.256193	  0.179347	  0.191831	  0.000000	  0.105641	  0.032711	  0.000000	  0.039945	  0.000000	  0.121628	  0.642275	  0.294032	  0.061040	  0.080663	
3.318	  0.094219	  0.122944	  0.253389	  0.178721	  0.189285	  0.000000	  0.106199	  0.032822	  0.000000	  0.039854	  0.000000	  0.122416	  0.646317	  0.294440	  0.061808	  0.081274	
3.3185	  0.096002	  0.124903	  0.250584	  0.178133	  0.186782	  0.000000	  0.106789	  0.032950	  0.000000	  0.039759	  0.000000	  0.123212	  0.650274	  0.294807	  0.062581	  0.081887	
3.319	  0.097799	  0.126867	  0.247776	  0.177582	  0.184324	  0.000000	  0.107411	  0.033095	  0.000000	  0.039661	  0.000000	  0.124017	  0.654143	  0.295133	  0.063360	  0.082503	
3.3195	  0.099608	  0.128837	  0.244967	  0.177070	  0.181910	  0.000000	  0.108065	  0.033257	  0.000000	  0.039559	  0.000000	  0.124831	  0.657925	  0.295419	  0.064143	  0.083120	
3.32	  0.101429	  0.130809	  0.242157	  0.176598	  0.179542	  0.000000	  0.108752	  0.033436	  0.000000	  0.039454	  0.000000	  0.125653	  0.661618	  0.295665	  0.064931	  0.083738	
3.3205	  0.103262	  0.132785	  0.239346	  0.176166	  0.177221	  0.000000	  0.109471	  0.033634	  0.000000	  0.039346	  0.000000	  0.126484	  0.665222	  0.295871	  0.065723	  0.084358	
3.321	  0.105106	  0.134762	  0.236534	  0.175774	  0.174949	  0.000000	  0.110223	  0.033849	  0.000000	  0.039236	  0.000000	  0.127323	  0.668736	  0.296036	  0.066518	  0.084978	
3.3215	  0.106960	  0.136740	  0.233721	  0.175424	  0.172725	  0.000000	  0.111007	  0.034083	  0.000000	  0.039124	  0.000000	  0.128170	  0.672160	  0.296162	  0.067318	  0.085598	
3.322	  0.108823	  0.138718	  0.230908	  0.175116	  0.170552	  0.000000	  0.111824	  0.034335	  0.000000	  0.039010	  0.000000	  0.129026	  0.675496	  0.296249	  0.068120	  0.086218	
3.3225	  0.110696	  0.140694	  0.228096	  0.174851	  0.168429	  0.000000	  0.112674	  0.034606	  0.000000	  0.038894	  0.000000	  0.129890	  0.678741	  0.296296	  0.068926	  0.086838	
3.323	  0.112576	  0.142667	  0.225285	  0.174629	  0.166359	  0.000000	  0.113556	  0.034896	  0.000000	  0.038777	  0.000000	  0.130762	  0.681898	  0.296304	  0.069734	  0.087457	
3.3235	  0.114464	  0.144636	  0.222476	  0.174450	  0.164342	  0.000000	  0.114471	  0.035205	  0.000000	  0.038659	  0.000000	  0.131643	  0.684967	  0.296274	  0.070544	  0.088075	
3.324	  0.116358	  0.146601	  0.219669	  0.174316	  0.162378	  0.000000	  0.115418	  0.035534	  0.000000	  0.038540	  0.000000	  0.132532	  0.687948	  0.296206	  0.071356	  0.088691	
3.3245	  0.118257	  0.148559	  0.216864	  0.174226	  0.160470	  0.000000	  0.116398	  0.035882	  0.000000	  0.038421	  0.000000	  0.133431	  0.690842	  0.296099	  0.072170	  0.089305	
3.325	  0.120161	  0.150509	  0.214062	  0.174182	  0.158617	  0.000000	  0.117411	  0.036250	  0.000000	  0.038302	  0.000000	  0.134339	  0.693652	  0.295956	  0.072985	  0.089916	
3.3255	  0.122069	  0.152450	  0.211265	  0.174182	  0.156820	  0.000000	  0.118456	  0.036639	  0.000000	  0.038182	  0.000000	  0.135257	  0.696379	  0.295777	  0.073800	  0.090524	
3.326	  0.123980	  0.154381	  0.208472	  0.174229	  0.155081	  0.000000	  0.119533	  0.037048	  0.000000	  0.038062	  0.000000	  0.136185	  0.699024	  0.295562	  0.074616	  0.091129	
3.3265	  0.125893	  0.156301	  0.205686	  0.174321	  0.153400	  0.000000	  0.120642	  0.037478	  0.000000	  0.037943	  0.000000	  0.137123	  0.701589	  0.295313	  0.075432	  0.091730	
3.327	  0.127807	  0.158208	  0.202905	  0.174460	  0.151778	  0.000000	  0.121783	  0.037928	  0.000000	  0.037825	  0.000000	  0.138073	  0.704076	  0.295032	  0.076247	  0.092327	
3.3275	  0.129720	  0.160101	  0.200133	  0.174646	  0.150216	  0.000000	  0.122957	  0.038400	  0.000000	  0.037707	  0.000000	  0.139034	  0.706485	  0.294720	  0.077062	  0.092919	
3.328	  0.131633	  0.161978	  0.197369	  0.174879	  0.148714	  0.000000	  0.124163	  0.038893	  0.000000	  0.037590	  0.000000	  0.140006	  0.708817	  0.294378	  0.077875	  0.093506	
3.3285	  0.133543	  0.163839	  0.194614	  0.175159	  0.147273	  0.000000	  0.125400	  0.039408	  0.000000	  0.037474	  0.000000	  0.140991	  0.711074	  0.294009	  0.078686	  0.094087	
3.329	  0.135451	  0.165683	  0.191869	  0.175486	  0.145894	  0.000000	  0.126669	  0.039945	  0.000000	  0.037360	  0.000000	  0.141989	  0.713257	  0.293614	  0.079495	  0.094663	
3.3295	  0.137354	  0.167506	  0.189136	  0.175861	  0.144577	  0.000000	  0.127971	  0.040505	  0.000000	  0.037247	  0.000000	  0.143000	  0.715364	  0.293194	  0.080302	  0.095231	
3.33	  0.139253	  0.169310	  0.186414	  0.176284	  0.143324	  0.000000	  0.129304	  0.041086	  0.000000	  0.037135	  0.000000	  0.144025	  0.717398	  0.292750	  0.081106	  0.095794	
3.3305	  0.141145	  0.171091	  0.183705	  0.176755	  0.142134	  0.000000	  0.130669	  0.041691	  0.000000	  0.037026	  0.000000	  0.145064	  0.719358	  0.292285	  0.081906	  0.096349	
3.331	  0.143031	  0.172849	  0.181009	  0.177274	  0.141008	  0.000000	  0.132065	  0.042319	  0.000000	  0.036918	  0.000000	  0.146118	  0.721244	  0.291800	  0.082704	  0.096896	
3.3315	  0.144908	  0.174582	  0.178328	  0.177841	  0.139947	  0.000000	  0.133494	  0.042970	  0.000000	  0.036812	  0.000000	  0.147186	  0.723057	  0.291296	  0.083497	  0.097436	
3.332	  0.146776	  0.176290	  0.175661	  0.178456	  0.138951	  0.000000	  0.134953	  0.043645	  0.000000	  0.036707	  0.000000	  0.148270	  0.724795	  0.290774	  0.084286	  0.097969	
3.3325	  0.148634	  0.177971	  0.173010	  0.179119	  0.138021	  0.000000	  0.136444	  0.044344	  0.000000	  0.036605	  0.000000	  0.149369	  0.726460	  0.290237	  0.085071	  0.098493	
3.333	  0.150481	  0.179625	  0.170375	  0.179831	  0.137156	  0.000000	  0.137967	  0.045067	  0.000000	  0.036506	  0.000000	  0.150484	  0.728050	  0.289686	  0.085851	  0.099009	
3.3335	  0.152316	  0.181251	  0.167758	  0.180591	  0.136358	  0.000000	  0.139521	  0.045814	  0.000000	  0.036408	  0.000000	  0.151615	  0.729564	  0.289121	  0.086627	  0.099516	
3.334	  0.154137	  0.182848	  0.165157	  0.181398	  0.135626	  0.000000	  0.141107	  0.046587	  0.000000	  0.036313	  0.000000	  0.152762	  0.731002	  0.288545	  0.087399	  0.100015	
3.3345	  0.155944	  0.184415	  0.162575	  0.182254	  0.134961	  0.000000	  0.142724	  0.047384	  0.000000	  0.036220	  0.000000	  0.153926	  0.732363	  0.287958	  0.088166	  0.100504	
3.335	  0.157735	  0.185952	  0.160012	  0.183158	  0.134363	  0.000000	  0.144372	  0.048207	  0.000000	  0.036129	  0.000000	  0.155105	  0.733647	  0.287361	  0.088929	  0.100984	
3.3355	  0.159511	  0.187458	  0.157468	  0.184109	  0.133832	  0.000000	  0.146052	  0.049056	  0.000000	  0.036041	  0.000000	  0.156302	  0.734852	  0.286757	  0.089688	  0.101454	
3.336	  0.161268	  0.188932	  0.154943	  0.185109	  0.133368	  0.000000	  0.147764	  0.049930	  0.000000	  0.035955	  0.000000	  0.157515	  0.735979	  0.286145	  0.090443	  0.101914	
